# xmcd
#
# Track frame offsets: 
#        150
#        16425
#        33600
#        55275
#        69000
#        86325
#        105900
#        123375
#        138900
#        158325
#        176250
#        197475
#        212400
#        230325
#        255000
#        266325
#
# Disc length: 3815 seconds
#
# Revision: 1
# Processed by: cddbd v1.5.2PL0 Copyright (c) Steve Scherf et al.
# Submitted via: ExactAudioCopyFreeDBPlugin 1.0
#
DISCID=b60ee510
DTITLE=Louis Armstrong and the Dukes of Dixieland - Disc 2
DYEAR=1959
DGENRE=Jazz
TTITLE0=South
TTITLE1=Washington And Lee Swing
TTITLE2=Avalon
TTITLE3=New Orleans
TTITLE4=That’s A Plenty
TTITLE5=Just A Closer Walk With Thee
TTITLE6=Dixie
TTITLE7=The Sheik Of Araby
TTITLE8=Wolverine Blues
TTITLE9=Sweet Georgia Brown
TTITLE10=Limehouse Blues
TTITLE11=Bourbon Street Parade
TTITLE12=Back O’ Town Blues
TTITLE13=Sweethearts On Parade
TTITLE14=Dippermouth blues
TTITLE15=Riverside blues
EXTD=YEAR: 1959
EXTT0=
EXTT1=
EXTT2=
EXTT3=
EXTT4=
EXTT5=
EXTT6=
EXTT7=
EXTT8=
EXTT9=
EXTT10=
EXTT11=
EXTT12=
EXTT13=
EXTT14=
EXTT15=
PLAYORDER=
